<?xml version="1.0" encoding="utf-8"?>
<!-- Generator: Adobe Illustrator 25.0.1, SVG Export Plug-In . SVG Version: 6.00 Build 0)  -->
<svg version="1.2" baseProfile="tiny" id="Ebene_1" xmlns="http://www.w3.org/2000/svg" xmlns:xlink="http://www.w3.org/1999/xlink"
	 x="0px" y="0px" viewBox="0 0 554.07 554.07" overflow="visible" xml:space="preserve">
<path fill="#242956" d="M370.79,249.01l-93.75-76.47l-93.75,76.47c-2.9,2.29-4.59,5.79-4.59,9.48v163.47
	c0,6.68,5.41,12.09,12.09,12.09h172.51c6.68,0,12.09-5.41,12.09-12.09V258.5C375.38,254.8,373.69,251.3,370.79,249.01z
	 M345.11,403.87l-136.25-0.07l0.07-136.54l68.15-53.64l68.1,53.71L345.11,403.87z"/>
<g id="LWPOLYLINE_244_">
	<path id="XMLID_2_" fill="#4A5BA6" d="M198.7,122.61L81.04,215.32c-2.91,2.29-4.61,5.79-4.61,9.49v99.09
		c0,2.48-1.14,4.82-3.09,6.35L3.48,384.88c-3.94,3.08-4.64,8.78-1.56,12.73c1.88,2.4,4.84,3.7,7.88,3.45l125.49-10.24
		c2.77-0.23,4.84-2.66,4.61-5.43c-0.05-0.62-0.22-1.23-0.49-1.8l-4.26-8.75c-0.91-1.86-2.87-2.98-4.94-2.81l-88.45,7.22l49.18-38.46
		c2.93-2.29,4.64-5.8,4.64-9.52v-99.13c0-2.47,1.13-4.8,3.07-6.33l102.55-80.8c2.93-2.31,7.05-2.31,9.97,0l50.67,39.93l15.19-12.39
		l-63.37-49.93C209.28,119.15,203.09,119.15,198.7,122.61z"/>
</g>
<g id="LWPOLYLINE_243_">
	<path id="XMLID_1_" fill="#474B60" d="M352.87,145.01l102.55,80.8c1.94,1.53,3.07,3.86,3.07,6.33v99.13c0,3.72,1.71,7.23,4.64,9.52
		l49.18,38.46l-88.45-7.22c-2.07-0.17-4.03,0.95-4.94,2.81l-4.26,8.75c-1.22,2.5-0.18,5.52,2.32,6.73c0.56,0.27,1.17,0.44,1.8,0.49
		l125.49,10.24c4.99,0.41,9.37-3.31,9.77-8.3c0.25-3.04-1.05-6-3.45-7.88l-69.86-54.63c-1.95-1.53-3.09-3.87-3.09-6.35v-99.09
		c0-3.7-1.7-7.2-4.61-9.49l-117.66-92.71c-4.39-3.46-10.57-3.46-14.96,0l-63.37,49.93l15.19,12.39l50.67-39.93
		C345.83,142.71,349.95,142.71,352.87,145.01z"/>
</g>
</svg>
